<svg width="218" height="33" viewBox="0 0 218 33" fill="none" xmlns="http://www.w3.org/2000/svg">
<path fill-rule="evenodd" clip-rule="evenodd" d="M105.275 32.918H217.85V0.581787H105.275V32.918Z" fill="#FEFEFE"/>
<path fill-rule="evenodd" clip-rule="evenodd" d="M0 32.918H105.275V0.581787H0V32.918Z" fill="#1D1D1B"/>
<path fill-rule="evenodd" clip-rule="evenodd" d="M78.8764 23.9185V23.3896H79.3643C79.6759 23.3896 79.9544 23.2917 80.1984 23.0916C80.4424 22.8952 80.5978 22.6239 80.6662 22.2885L82.1638 9.39921H82.5906L88.0234 21.1464L93.3547 9.39921H93.7822L95.3 22.2885C95.3683 22.6239 95.5238 22.8952 95.7677 23.0916C96.0117 23.2917 96.2895 23.3896 96.6018 23.3896H97.0963V23.9185H92.44V23.4105H92.9279C93.0935 23.4105 93.2359 23.3457 93.3547 23.2169C93.4734 23.0881 93.5346 22.9391 93.5346 22.7728V22.7354L92.7005 13.361L88.7762 22.0683C88.6711 22.2986 88.5761 22.5361 88.4883 22.7728C88.4098 22.9938 88.3321 23.2269 88.2544 23.4781C88.1795 23.7286 88.1284 23.9725 88.1018 24.2035H87.6743L82.8007 13.6496L81.9846 22.7354V22.7728C81.9846 22.9391 82.0451 23.0881 82.1703 23.2169C82.2926 23.3457 82.4315 23.4105 82.5906 23.4105H83.0584V23.9185H78.8764ZM64.7917 18.1231H69.2076L67.045 12.3887L64.7917 18.1231ZM59.7857 23.8984V23.3694H60.1347C60.406 23.3694 60.691 23.2816 60.989 23.1017C61.284 22.9225 61.5309 22.6311 61.7209 22.2273H61.7007L66.2116 11.5553C66.344 11.2567 66.4657 10.9717 66.5772 10.7011C66.6693 10.4672 66.7535 10.2297 66.832 9.98574C66.9061 9.74177 66.9435 9.5453 66.9435 9.39921H67.3911L72.7217 22.2072V22.187C72.9153 22.6037 73.1593 22.9017 73.4572 23.0816C73.7559 23.2608 74.0402 23.3493 74.3115 23.3493H74.6505V23.8783H69.8344V23.3493H70.1799C70.3598 23.3493 70.516 23.2946 70.6477 23.1866C70.7801 23.078 70.8477 22.9117 70.8477 22.6951C70.8477 22.5764 70.8276 22.4511 70.7865 22.3259L69.5466 19.0586H64.4427L63.1408 22.3461V22.3259C63.1034 22.4778 63.0832 22.6001 63.0832 22.6951C63.0832 22.9117 63.1545 23.0816 63.297 23.1967C63.4394 23.3119 63.5985 23.3694 63.7784 23.3694H64.1239V23.8984H59.7857ZM45.7888 16.6182H46.9245C47.0432 16.6182 47.1785 16.6117 47.3311 16.5981C47.575 16.5981 47.8392 16.5743 48.1206 16.5232C48.4055 16.4728 48.6833 16.3814 48.9611 16.2426C49.2389 16.1065 49.4901 15.9137 49.7204 15.6625C49.9543 15.4149 50.1342 15.0767 50.2659 14.6492C50.3307 14.4016 50.3645 14.0835 50.3645 13.6899V13.5006C50.3371 12.6399 50.127 11.9584 49.7269 11.4532C49.3274 10.9515 48.7848 10.6802 48.1004 10.6399C47.8701 10.6263 47.6427 10.6162 47.4189 10.6097C47.1958 10.6025 46.9856 10.5996 46.7856 10.5996C46.5956 10.5996 46.4264 10.6025 46.2768 10.6097C46.1314 10.6162 46.0026 10.6198 45.8975 10.6198H45.7888V16.6182ZM42.6777 23.9387V23.4105H43.0908C43.3966 23.4105 43.6471 23.3054 43.8436 23.0917C44.0436 22.8815 44.1552 22.6275 44.1825 22.3288V11.3042C44.1552 11.0062 44.0436 10.7515 43.8436 10.5349C43.6471 10.3211 43.3966 10.2132 43.0908 10.2132H42.6777V9.6842L48.1817 9.75185C49.4361 9.75185 50.4185 10.0944 51.1374 10.7752C51.8556 11.4567 52.2148 12.406 52.2148 13.6186C52.2148 14.0864 52.137 14.5441 51.9809 14.9918C51.8283 15.4387 51.6146 15.8424 51.344 16.2051C51.0726 16.5678 50.7538 16.8723 50.381 17.1198C50.0082 17.3674 49.6052 17.5264 49.1677 17.5912C49.3613 17.7438 49.5477 17.9266 49.7269 18.1403C49.9068 18.3569 50.0766 18.5606 50.2256 18.7499C50.5372 19.2112 50.8459 19.6516 51.1576 20.0654C51.4152 20.4145 51.6858 20.7736 51.9708 21.1392C52.2558 21.5055 52.4961 21.7869 52.6861 21.987C53.0755 22.4209 53.472 22.77 53.8722 23.0341C54.2723 23.2982 54.7905 23.4306 55.4274 23.4306V23.9589H54.1672C53.6886 23.9589 53.2655 23.902 52.8963 23.7861C52.5228 23.671 52.1946 23.5256 51.9031 23.3493C51.6117 23.173 51.3605 22.983 51.1475 22.7728C50.9373 22.5663 50.7509 22.3597 50.5912 22.1525C50.5646 22.1158 50.5034 22.0309 50.4084 21.902C50.3134 21.7732 50.2018 21.6142 50.073 21.4206C49.9442 21.2313 49.8017 21.024 49.6491 20.8038C49.493 20.5836 49.3339 20.3562 49.1677 20.1259C48.8733 19.7229 48.5682 19.299 48.2594 18.8586C47.9514 18.4181 47.7377 18.1202 47.6225 17.964C47.5074 17.8078 47.3851 17.6689 47.2562 17.5473C47.1274 17.425 46.9856 17.33 46.8331 17.2551C46.6769 17.1846 46.3279 17.1472 45.7888 17.1472V22.3324C45.8162 22.6275 45.9277 22.8815 46.1278 23.0953C46.3243 23.3054 46.5754 23.4105 46.8806 23.4105H47.2937V23.9387H42.6777ZM27.2983 23.9589V23.4306H27.7359C28.054 23.4306 28.3181 23.3255 28.5283 23.1118C28.7384 22.9017 28.8572 22.6411 28.8845 22.3288V11.2265C28.8572 10.9551 28.7355 10.7248 28.5182 10.5349C28.3016 10.3485 28.0475 10.2535 27.7561 10.2535H27.3185V9.7245H33.3241C33.5314 9.7245 33.7617 9.71155 34.0121 9.6842C34.2662 9.65685 34.5138 9.62663 34.7512 9.58561C34.9916 9.54531 35.2118 9.49781 35.4155 9.44671C35.6184 9.39274 35.7746 9.33876 35.8797 9.27759V12.2059H35.3507V11.677C35.3507 11.4057 35.2593 11.1718 35.0765 10.9854C34.8901 10.7961 34.6627 10.6874 34.3885 10.6601H30.4908V16.4556H33.6768C33.9107 16.4419 34.1071 16.3606 34.2633 16.2051C34.4188 16.0526 34.4965 15.8626 34.4965 15.6359V15.1947H35.0254V18.6311H34.4965V18.1569C34.4965 17.9403 34.4188 17.7575 34.2633 17.6078C34.1071 17.4552 33.9243 17.371 33.7171 17.3501H30.511V22.983H33.1953C33.7041 22.983 34.1374 22.9189 34.4965 22.7901C34.8592 22.6613 35.1715 22.4814 35.4393 22.2475C35.707 22.0172 35.9373 21.743 36.1273 21.4278C36.3201 21.109 36.49 20.7635 36.6353 20.3835H37.1809L35.8797 23.9589H27.2983ZM9.62109 23.9186V23.3896H10.045C10.353 23.3896 10.607 23.2845 10.8071 23.0715C11.0072 22.8614 11.1187 22.6073 11.1461 22.3087V11.284C11.1187 10.9854 11.0072 10.7313 10.8071 10.5147C10.607 10.301 10.353 10.1923 10.045 10.1923H9.62109V9.66405H14.2982V10.1923H13.8707C13.5627 10.1923 13.3051 10.301 13.0978 10.5147C12.8949 10.7313 12.7797 10.9854 12.7524 11.284V16.6391L17.5886 10.8565C17.667 10.7651 17.7109 10.6737 17.7174 10.5788C17.7174 10.4737 17.6771 10.3823 17.5922 10.3082C17.5108 10.2297 17.3957 10.1923 17.2496 10.1923H16.884V9.6842H21.4114V10.1923H21.1711C20.7681 10.1923 20.3881 10.2736 20.0354 10.4363C19.6799 10.5996 19.3885 10.8162 19.1582 11.0876L14.322 16.3678L19.9304 22.6541C20.1751 22.9117 20.4457 23.0981 20.7335 23.2068C21.0257 23.3155 21.3884 23.3766 21.8188 23.3896V23.9186H20.8256C20.6731 23.9186 20.473 23.9085 20.2254 23.8876C19.975 23.8675 19.7073 23.82 19.4158 23.7458C19.1243 23.6681 18.8257 23.5522 18.5205 23.3968C18.2161 23.2406 17.9412 23.0204 17.6972 22.7354L12.7524 17.0659V22.3087C12.7797 22.6073 12.8949 22.8614 13.0978 23.0715C13.3051 23.2845 13.5627 23.3896 13.8707 23.3896H14.2982V23.9186H9.62109Z" fill="#FEFEFE"/>
<path fill-rule="evenodd" clip-rule="evenodd" d="M193.04 23.9389V23.41H193.562C193.844 23.41 194.085 23.3085 194.288 23.102C194.488 22.8983 194.593 22.6442 194.606 22.3456V12.019C194.606 11.6837 194.596 11.3548 194.575 11.0331C194.555 10.7114 194.532 10.4336 194.508 10.1925L194.406 9.3793H194.874L205.465 20.6788V11.2468C205.437 10.9618 205.329 10.7179 205.133 10.5142C204.937 10.3149 204.693 10.2127 204.394 10.2127H203.858V9.68444L208.271 9.70459V10.2328H207.735C207.465 10.2328 207.227 10.335 207.027 10.5351C206.827 10.738 206.719 10.9755 206.705 11.2468V21.5324C206.705 21.8447 206.716 22.1599 206.736 22.4816C206.756 22.8033 206.78 23.0912 206.804 23.3495C206.831 23.6475 206.868 23.9389 206.916 24.2232H206.458L195.867 12.9143V22.3665C195.894 22.6507 196.006 22.8983 196.203 23.102C196.402 23.3085 196.643 23.41 196.927 23.41H197.453V23.9389H193.04ZM173.791 16.7336C173.791 15.6217 173.97 14.6156 174.333 13.7074C174.692 12.7992 175.193 12.019 175.834 11.3685C176.478 10.7179 177.247 10.2163 178.145 9.86363C179.04 9.51459 180.03 9.33827 181.108 9.33827C182.222 9.33827 183.182 9.47717 183.978 9.75208C184.778 10.0263 185.487 10.3552 186.114 10.7416L186.54 13.8189H186.073C185.761 12.6631 185.178 11.7851 184.327 11.1785C183.477 10.5754 182.409 10.2738 181.128 10.2738C180.314 10.2738 179.569 10.43 178.895 10.7416C178.22 11.0532 177.641 11.4908 177.159 12.0565C176.674 12.6192 176.302 13.3001 176.038 14.0967C175.773 14.8934 175.641 15.7779 175.641 16.7538C175.641 17.7167 175.776 18.5911 176.048 19.3805C176.319 20.17 176.698 20.8444 177.19 21.4071C177.678 21.9735 178.261 22.4168 178.938 22.7392C179.616 23.0645 180.352 23.2337 181.148 23.2473C181.962 23.2337 182.748 23.0818 183.507 22.7903C184.27 22.4953 184.92 22.1124 185.462 21.641V18.1197C185.462 17.6483 185.205 17.4115 184.693 17.4115H184.676H184.385V16.9639H188.17V17.4115L187.883 17.3914C187.34 17.3914 187.069 17.6281 187.069 18.0995V21.451C186.822 21.7763 186.52 22.0987 186.157 22.4204C185.798 22.7392 185.371 23.0235 184.88 23.2747C184.385 23.5222 183.829 23.7288 183.209 23.895C182.589 24.0606 181.894 24.1419 181.128 24.1419C180.044 24.1419 179.051 23.9627 178.149 23.6C177.247 23.2409 176.478 22.7356 175.834 22.0915C175.193 21.4482 174.692 20.6716 174.333 19.7634C173.97 18.8552 173.791 17.8484 173.791 16.7336ZM163.044 23.9188V23.3898H163.468C163.776 23.3898 164.031 23.2848 164.23 23.071C164.43 22.8609 164.542 22.6068 164.569 22.3089V11.2835C164.542 10.9856 164.43 10.7316 164.23 10.5142C164.031 10.3012 163.776 10.1925 163.468 10.1925H163.044V9.66356H167.721V10.1925H167.294C166.985 10.1925 166.728 10.3012 166.521 10.5142C166.318 10.7316 166.202 10.9856 166.176 11.2835V22.3089C166.202 22.6068 166.318 22.8609 166.521 23.071C166.728 23.2848 166.985 23.3898 167.294 23.3898H167.721V23.9188H163.044ZM149.231 22.1966C149.231 21.8713 149.261 21.5122 149.326 21.1193C149.386 20.7256 149.471 20.3535 149.576 20.0045H150.064C150.05 20.1362 150.04 20.2485 150.034 20.3363C150.026 20.4241 150.024 20.5025 150.024 20.5702C150.024 21.3971 150.271 22.0476 150.766 22.5291C151.257 23.007 151.877 23.2473 152.623 23.2473H152.792C153.138 23.2337 153.47 23.1696 153.789 23.0473C154.107 22.9292 154.382 22.763 154.609 22.5428C154.839 22.3254 155.026 22.0678 155.165 21.7698C155.304 21.4719 155.371 21.1358 155.371 20.7594C155.371 20.0383 155.12 19.4683 154.622 19.0517L150.742 15.5138C150.328 15.1201 150.034 14.6933 149.851 14.222C149.667 13.7549 149.576 13.3173 149.576 12.9143C149.576 12.4768 149.657 12.05 149.824 11.6333C149.99 11.2159 150.23 10.8395 150.545 10.5077C150.861 10.1724 151.247 9.90465 151.711 9.70099C152.172 9.50092 152.711 9.39944 153.318 9.39944C153.592 9.39944 153.883 9.41672 154.188 9.45054C154.497 9.48077 154.789 9.53186 155.06 9.59951H156.022V12.3681H155.51C155.51 11.7348 155.304 11.2368 154.89 10.874C154.473 10.5142 153.979 10.335 153.399 10.335C153.07 10.335 152.768 10.3926 152.498 10.5077C152.226 10.6229 151.993 10.7791 151.796 10.9755C151.599 11.1684 151.45 11.3922 151.341 11.6434C151.236 11.8938 151.182 12.1615 151.182 12.4465C151.182 12.6905 151.227 12.9683 151.315 13.2799C151.402 13.5915 151.589 13.883 151.87 14.1543L155.768 17.7908C156.232 18.1837 156.551 18.5975 156.72 19.038C156.893 19.4755 156.978 19.9088 156.978 20.3327C156.978 20.9019 156.883 21.4273 156.69 21.9087C156.5 22.3902 156.232 22.8004 155.883 23.1394C155.538 23.4776 155.11 23.7425 154.602 23.9353C154.093 24.1289 153.528 24.2232 152.904 24.2232C152.64 24.2232 152.345 24.2031 152.023 24.1592C151.698 24.1153 151.372 24.0476 151.04 23.9526C150.712 23.8576 150.393 23.7353 150.084 23.5863C149.78 23.4337 149.525 23.2509 149.322 23.0307C149.295 22.9084 149.271 22.7767 149.254 22.6342C149.237 22.4881 149.231 22.3427 149.231 22.1966ZM133.261 23.9591V23.4309H133.699C134.017 23.4309 134.282 23.3258 134.492 23.112C134.702 22.9019 134.821 22.6407 134.847 22.329V11.226C134.821 10.9554 134.698 10.7244 134.481 10.5351C134.264 10.3487 134.01 10.2537 133.719 10.2537H133.281V9.72473H139.287C139.494 9.72473 139.724 9.71106 139.975 9.68443C140.23 9.65709 140.476 9.62686 140.714 9.58584C140.954 9.54554 141.175 9.49804 141.378 9.44694C141.581 9.39297 141.737 9.33827 141.842 9.2771V12.2054H141.313V11.6772C141.313 11.4059 141.222 11.172 141.039 10.9856C140.853 10.7956 140.625 10.6877 140.351 10.6603H136.453V16.4558H139.639C139.873 16.4421 140.07 16.3608 140.226 16.2046C140.381 16.0521 140.46 15.8628 140.46 15.6354V15.1949H140.988V18.6314H140.46V18.1571C140.46 17.9398 140.381 17.757 140.226 17.608C140.07 17.4554 139.887 17.3705 139.68 17.3504H136.474V22.9832H139.158C139.667 22.9832 140.1 22.9184 140.46 22.7903C140.823 22.6608 141.134 22.4816 141.402 22.2477C141.67 22.0174 141.9 21.7425 142.09 21.4273C142.283 21.1092 142.453 20.763 142.598 20.3838H143.144L141.842 23.9591H133.261ZM116.072 22.9832H119.833C120.66 22.9832 121.41 22.8342 122.084 22.5356C122.755 22.2405 123.328 21.8209 123.799 21.2783C124.274 20.7364 124.643 20.0851 124.907 19.3294C125.171 18.5738 125.304 17.7267 125.304 16.7876C125.304 15.8693 125.171 15.0287 124.907 14.273C124.643 13.5174 124.274 12.8668 123.799 12.3242C123.328 11.7823 122.752 11.362 122.074 11.0669C121.393 10.769 120.647 10.6193 119.833 10.6193H116.072V22.9832ZM112.927 23.9188V23.3898H113.354C113.665 23.3898 113.92 23.2848 114.123 23.071C114.327 22.8609 114.438 22.6032 114.465 22.3053V11.1684C114.465 10.8942 114.35 10.6668 114.123 10.4876C113.896 10.3041 113.639 10.2127 113.354 10.2127H112.927V9.68443H119.837C120.922 9.68443 121.911 9.85356 122.806 10.1961C123.697 10.5351 124.467 11.0158 125.114 11.6362C125.758 12.2565 126.256 13.0021 126.608 13.8729C126.957 14.7473 127.134 15.7167 127.134 16.7876C127.134 17.862 126.957 18.835 126.608 19.7123C126.256 20.5867 125.758 21.3359 125.114 21.9627C124.467 22.5903 123.697 23.0746 122.806 23.41C121.911 23.7489 120.922 23.9188 119.837 23.9188H112.927Z" fill="#1D1D1B"/>
</svg>
