<svg width="303" height="45" viewBox="0 0 303 45" fill="none" xmlns="http://www.w3.org/2000/svg">
<path fill-rule="evenodd" clip-rule="evenodd" d="M146.282 44.932H302.708V0H146.282V44.932Z" fill="#22201E"/>
<path fill-rule="evenodd" clip-rule="evenodd" d="M0 44.932H146.282V0H0V44.932Z" fill="#FEFEFE"/>
<path fill-rule="evenodd" clip-rule="evenodd" d="M109.601 32.427V31.692H110.279C110.712 31.692 111.099 31.556 111.438 31.278C111.777 31.005 111.993 30.628 112.088 30.162L114.169 12.252H114.762L122.311 28.575L129.719 12.252H130.313L132.422 30.162C132.517 30.628 132.733 31.005 133.072 31.278C133.411 31.556 133.797 31.692 134.231 31.692H134.918V32.427H128.448V31.721H129.126C129.356 31.721 129.554 31.631 129.719 31.452C129.884 31.273 129.969 31.066 129.969 30.835V30.783L128.81 17.757L123.357 29.856C123.211 30.176 123.079 30.506 122.957 30.835C122.848 31.142 122.74 31.466 122.632 31.815C122.528 32.163 122.457 32.502 122.42 32.823H121.826L115.054 18.158L113.92 30.783V30.835C113.92 31.066 114.004 31.273 114.178 31.452C114.348 31.631 114.541 31.721 114.762 31.721H115.412V32.427H109.601ZM90.0301 24.374H96.1661L93.1611 16.406L90.0301 24.374ZM83.0741 32.399V31.664H83.5591C83.9361 31.664 84.3321 31.542 84.7461 31.292C85.1561 31.043 85.4991 30.638 85.7631 30.077H85.7351L92.0031 15.248C92.1871 14.833 92.3561 14.437 92.5111 14.061C92.6391 13.736 92.7561 13.406 92.8651 13.067C92.9681 12.728 93.0201 12.455 93.0201 12.252H93.6421L101.049 30.049V30.021C101.318 30.6 101.657 31.014 102.071 31.264C102.486 31.513 102.881 31.636 103.258 31.636H103.729V32.371H97.0371V31.636H97.5171C97.7671 31.636 97.9841 31.56 98.1671 31.41C98.3511 31.259 98.4451 31.028 98.4451 30.727C98.4451 30.562 98.4171 30.388 98.3601 30.214L96.6371 25.674H89.5451L87.7361 30.242V30.214C87.6841 30.425 87.6561 30.595 87.6561 30.727C87.6561 31.028 87.7551 31.264 87.9531 31.424C88.1511 31.584 88.3721 31.664 88.6221 31.664H89.1021V32.399H83.0741ZM63.6251 22.283H65.2031C65.3681 22.283 65.5561 22.274 65.7681 22.255C66.1071 22.255 66.4741 22.222 66.8651 22.151C67.2611 22.081 67.6471 21.954 68.0331 21.761C68.4191 21.572 68.7681 21.304 69.0881 20.955C69.4131 20.611 69.6631 20.141 69.8461 19.547C69.9361 19.203 69.9831 18.761 69.9831 18.214V17.951C69.9451 16.755 69.6531 15.808 69.0971 15.106C68.5421 14.409 67.7881 14.032 66.8371 13.976C66.5171 13.957 66.2011 13.943 65.8901 13.934C65.5801 13.924 65.2881 13.92 65.0101 13.92C64.7461 13.92 64.5111 13.924 64.3031 13.934C64.1011 13.943 63.9221 13.948 63.7761 13.948H63.6251V22.283ZM59.3021 32.455V31.721H59.8761C60.3011 31.721 60.6491 31.575 60.9221 31.278C61.2001 30.986 61.3551 30.633 61.3931 30.218V14.899C61.3551 14.485 61.2001 14.131 60.9221 13.83C60.6491 13.533 60.3011 13.383 59.8761 13.383H59.3021V12.648L66.9501 12.742C68.6931 12.742 70.0581 13.218 71.0571 14.164C72.0551 15.111 72.5541 16.43 72.5541 18.115C72.5541 18.765 72.4461 19.401 72.2291 20.023C72.0171 20.644 71.7201 21.205 71.3441 21.709C70.9671 22.213 70.5241 22.636 70.0061 22.98C69.4881 23.324 68.9281 23.545 68.3201 23.635C68.5891 23.847 68.8481 24.101 69.0971 24.398C69.3471 24.699 69.5831 24.982 69.7901 25.245C70.2231 25.886 70.6521 26.498 71.0851 27.073C71.4431 27.558 71.8191 28.057 72.2151 28.565C72.6111 29.074 72.9451 29.465 73.2091 29.743C73.7501 30.346 74.3011 30.831 74.8571 31.198C75.4131 31.565 76.1331 31.749 77.0181 31.749V32.483H75.2671C74.6021 32.483 74.0141 32.404 73.5011 32.243C72.9821 32.083 72.5261 31.881 72.1211 31.636C71.7161 31.391 71.3671 31.127 71.0711 30.835C70.7791 30.548 70.5201 30.261 70.2981 29.973C70.2611 29.922 70.1761 29.804 70.0441 29.625C69.9121 29.446 69.7571 29.225 69.5781 28.956C69.3991 28.693 69.2011 28.405 68.9891 28.099C68.7721 27.793 68.5511 27.477 68.3201 27.157C67.9111 26.597 67.4871 26.008 67.0581 25.396C66.6301 24.784 66.3331 24.37 66.1731 24.153C66.0131 23.936 65.8431 23.743 65.6641 23.574C65.4851 23.404 65.2881 23.272 65.0761 23.168C64.8591 23.07 64.3741 23.018 63.6251 23.018V30.223C63.6631 30.633 63.8181 30.986 64.0961 31.283C64.3691 31.575 64.7181 31.721 65.1421 31.721H65.7161V32.455H59.3021ZM37.9321 32.483V31.749H38.5401C38.9821 31.749 39.3491 31.603 39.6411 31.306C39.9331 31.014 40.0981 30.652 40.1361 30.218V14.791C40.0981 14.414 39.9291 14.094 39.6271 13.83C39.3261 13.571 38.9731 13.439 38.5681 13.439H37.9601V12.704H46.3051C46.5931 12.704 46.9131 12.686 47.2611 12.648C47.6141 12.61 47.9581 12.568 48.2881 12.511C48.6221 12.455 48.9281 12.389 49.2111 12.318C49.4931 12.243 49.7101 12.168 49.8561 12.083V16.152H49.1211V15.417C49.1211 15.04 48.9941 14.715 48.7401 14.456C48.4811 14.193 48.1651 14.042 47.7841 14.004H42.3681V22.057H46.7951C47.1201 22.038 47.3931 21.925 47.6101 21.709C47.8261 21.497 47.9341 21.233 47.9341 20.918V20.305H48.6691V25.08H47.9341V24.421C47.9341 24.12 47.8261 23.866 47.6101 23.658C47.3931 23.446 47.1391 23.329 46.8511 23.3H42.3961V31.127H46.1261C46.8331 31.127 47.4351 31.038 47.9341 30.859C48.4381 30.68 48.8721 30.43 49.2441 30.105C49.6161 29.785 49.9361 29.404 50.2001 28.966C50.4681 28.523 50.7041 28.043 50.9061 27.515H51.6641L49.8561 32.483H37.9321ZM13.3691 32.427V31.692H13.9581C14.3861 31.692 14.7391 31.546 15.0171 31.25C15.2951 30.958 15.4501 30.605 15.4881 30.19V14.871C15.4501 14.456 15.2951 14.103 15.0171 13.802C14.7391 13.505 14.3861 13.354 13.9581 13.354H13.3691V12.62H19.8681V13.354H19.2741C18.8461 13.354 18.4881 13.505 18.2001 13.802C17.9181 14.103 17.7581 14.456 17.7201 14.871V22.312L24.4401 14.277C24.5491 14.15 24.6101 14.023 24.6191 13.891C24.6191 13.745 24.5631 13.618 24.4451 13.515C24.3321 13.406 24.1721 13.354 23.9691 13.354H23.4611V12.648H29.7521V13.354H29.4181C28.8581 13.354 28.3301 13.467 27.8401 13.693C27.3461 13.92 26.9411 14.221 26.6211 14.598L19.9011 21.935L27.6941 30.67C28.0341 31.028 28.4101 31.287 28.8101 31.438C29.2161 31.589 29.7201 31.674 30.3181 31.692V32.427H28.9381C28.7261 32.427 28.4481 32.413 28.1041 32.384C27.7561 32.356 27.3841 32.29 26.9791 32.187C26.5741 32.079 26.1591 31.918 25.7351 31.702C25.3121 31.485 24.9301 31.179 24.5911 30.783L17.7201 22.905V30.19C17.7581 30.605 17.9181 30.958 18.2001 31.25C18.4881 31.546 18.8461 31.692 19.2741 31.692H19.8681V32.427H13.3691Z" fill="#1D1D1B"/>
<path fill-rule="evenodd" clip-rule="evenodd" d="M268.235 32.455V31.72H268.96C269.351 31.72 269.686 31.579 269.968 31.292C270.246 31.009 270.392 30.656 270.411 30.241V15.892C270.411 15.426 270.396 14.969 270.368 14.522C270.34 14.075 270.307 13.689 270.274 13.354L270.133 12.224H270.783L285.499 27.925V14.819C285.461 14.423 285.311 14.084 285.038 13.801C284.765 13.524 284.426 13.382 284.011 13.382H283.267V12.648L289.398 12.676V13.41H288.654C288.278 13.41 287.948 13.552 287.67 13.83C287.392 14.112 287.242 14.442 287.223 14.819V29.111C287.223 29.545 287.237 29.983 287.265 30.43C287.293 30.877 287.326 31.277 287.36 31.636C287.397 32.05 287.449 32.455 287.515 32.85H286.879L272.162 17.136V30.27C272.2 30.665 272.356 31.009 272.629 31.292C272.906 31.579 273.241 31.72 273.636 31.72H274.366V32.455H268.235ZM241.487 22.443C241.487 20.898 241.736 19.5 242.24 18.238C242.739 16.976 243.436 15.892 244.326 14.988C245.221 14.084 246.29 13.387 247.538 12.897C248.781 12.412 250.156 12.167 251.654 12.167C253.203 12.167 254.536 12.36 255.643 12.742C256.754 13.123 257.739 13.58 258.61 14.117L259.203 18.393H258.553C258.12 16.787 257.31 15.567 256.128 14.724C254.946 13.886 253.463 13.467 251.682 13.467C250.552 13.467 249.516 13.684 248.579 14.117C247.642 14.55 246.837 15.158 246.168 15.944C245.494 16.726 244.976 17.672 244.609 18.779C244.242 19.886 244.058 21.115 244.058 22.471C244.058 23.809 244.246 25.024 244.623 26.121C245 27.218 245.527 28.155 246.21 28.937C246.888 29.724 247.698 30.34 248.64 30.788C249.582 31.24 250.604 31.475 251.71 31.494C252.841 31.475 253.933 31.264 254.988 30.859C256.048 30.449 256.952 29.917 257.705 29.262V24.369C257.705 23.714 257.348 23.385 256.636 23.385H256.613H256.208V22.763H261.468V23.385L261.068 23.357C260.314 23.357 259.938 23.686 259.938 24.341V28.998C259.594 29.45 259.175 29.898 258.671 30.345C258.172 30.788 257.578 31.183 256.896 31.532C256.208 31.876 255.436 32.163 254.574 32.394C253.712 32.624 252.747 32.737 251.682 32.737C250.176 32.737 248.796 32.488 247.543 31.984C246.29 31.485 245.221 30.783 244.326 29.888C243.436 28.994 242.739 27.915 242.24 26.653C241.736 25.391 241.487 23.992 241.487 22.443ZM226.554 32.427V31.692H227.143C227.571 31.692 227.925 31.546 228.202 31.249C228.48 30.957 228.636 30.604 228.673 30.19V14.87C228.636 14.456 228.48 14.103 228.202 13.801C227.925 13.505 227.571 13.354 227.143 13.354H226.554V12.619H233.053V13.354H232.46C232.031 13.354 231.673 13.505 231.386 13.801C231.103 14.103 230.943 14.456 230.906 14.87V30.19C230.943 30.604 231.103 30.957 231.386 31.249C231.673 31.546 232.031 31.692 232.46 31.692H233.053V32.427H226.554ZM207.36 30.034C207.36 29.582 207.402 29.083 207.492 28.537C207.576 27.99 207.694 27.473 207.84 26.988H208.518C208.499 27.171 208.485 27.327 208.476 27.449C208.466 27.571 208.462 27.68 208.462 27.774C208.462 28.923 208.806 29.827 209.493 30.496C210.176 31.16 211.038 31.494 212.074 31.494H212.309C212.79 31.475 213.251 31.386 213.694 31.216C214.136 31.052 214.518 30.821 214.833 30.515C215.153 30.213 215.413 29.855 215.606 29.441C215.799 29.027 215.893 28.56 215.893 28.037C215.893 27.035 215.544 26.243 214.852 25.664L209.46 20.748C208.885 20.201 208.476 19.608 208.222 18.953C207.967 18.304 207.84 17.696 207.84 17.136C207.84 16.528 207.953 15.935 208.184 15.356C208.415 14.776 208.749 14.253 209.187 13.792C209.625 13.326 210.162 12.954 210.807 12.671C211.447 12.393 212.196 12.252 213.039 12.252C213.421 12.252 213.825 12.276 214.249 12.323C214.678 12.365 215.083 12.436 215.46 12.53H216.797V16.377H216.086C216.086 15.497 215.799 14.805 215.224 14.301C214.645 13.801 213.958 13.552 213.152 13.552C212.695 13.552 212.276 13.632 211.9 13.792C211.523 13.952 211.198 14.169 210.925 14.442C210.651 14.71 210.444 15.021 210.293 15.37C210.147 15.718 210.072 16.09 210.072 16.486C210.072 16.825 210.134 17.211 210.256 17.644C210.378 18.077 210.637 18.482 211.028 18.859L216.444 23.912C217.089 24.458 217.532 25.033 217.767 25.645C218.007 26.253 218.125 26.855 218.125 27.444C218.125 28.235 217.993 28.965 217.725 29.634C217.461 30.303 217.089 30.873 216.604 31.344C216.124 31.814 215.53 32.182 214.824 32.45C214.117 32.719 213.331 32.85 212.464 32.85C212.097 32.85 211.688 32.822 211.24 32.761C210.788 32.7 210.336 32.606 209.874 32.474C209.418 32.342 208.975 32.172 208.546 31.965C208.123 31.753 207.769 31.499 207.487 31.193C207.449 31.023 207.416 30.84 207.393 30.642C207.369 30.439 207.36 30.237 207.36 30.034ZM185.17 32.483V31.749H185.778C186.22 31.749 186.588 31.603 186.88 31.306C187.172 31.014 187.337 30.651 187.374 30.218V14.79C187.337 14.414 187.167 14.093 186.865 13.83C186.564 13.571 186.211 13.439 185.806 13.439H185.198V12.704H193.543C193.831 12.704 194.151 12.685 194.499 12.648C194.853 12.61 195.196 12.568 195.526 12.511C195.86 12.455 196.166 12.389 196.449 12.318C196.731 12.243 196.948 12.167 197.094 12.082V16.151H196.359V15.417C196.359 15.04 196.232 14.715 195.978 14.456C195.719 14.192 195.403 14.042 195.022 14.004H189.606V22.057H194.033C194.358 22.038 194.631 21.925 194.848 21.708C195.064 21.496 195.173 21.233 195.173 20.917V20.305H195.907V25.08H195.173V24.421C195.173 24.119 195.064 23.865 194.848 23.658C194.631 23.446 194.377 23.328 194.089 23.3H189.635V31.127H193.364C194.071 31.127 194.673 31.037 195.173 30.859C195.677 30.679 196.11 30.43 196.482 30.105C196.854 29.785 197.174 29.403 197.438 28.965C197.706 28.523 197.942 28.042 198.144 27.515H198.902L197.094 32.483H185.17ZM161.285 31.127H166.512C167.661 31.127 168.702 30.92 169.639 30.505C170.572 30.095 171.368 29.512 172.022 28.758C172.682 28.005 173.195 27.1 173.562 26.05C173.929 25 174.113 23.823 174.113 22.518C174.113 21.242 173.929 20.074 173.562 19.024C173.195 17.974 172.682 17.07 172.022 16.316C171.368 15.563 170.567 14.979 169.625 14.569C168.679 14.155 167.643 13.947 166.512 13.947H161.285V31.127ZM156.915 32.427V31.692H157.508C157.941 31.692 158.295 31.546 158.577 31.249C158.86 30.957 159.015 30.599 159.053 30.185V14.71C159.053 14.329 158.893 14.013 158.577 13.764C158.262 13.509 157.904 13.382 157.508 13.382H156.915V12.648H166.517C168.024 12.648 169.399 12.883 170.642 13.359C171.881 13.83 172.95 14.498 173.85 15.36C174.744 16.222 175.437 17.258 175.926 18.468C176.411 19.683 176.656 21.03 176.656 22.518C176.656 24.011 176.411 25.363 175.926 26.582C175.437 27.797 174.744 28.838 173.85 29.709C172.95 30.581 171.881 31.254 170.642 31.72C169.399 32.191 168.024 32.427 166.517 32.427H156.915Z" fill="#FEFEFE"/>
</svg>
