<svg width="19" height="18" viewBox="0 0 19 18" fill="none" xmlns="http://www.w3.org/2000/svg">
<path fill-rule="evenodd" clip-rule="evenodd" d="M15.3109 9.735C15.3409 9.495 15.3634 9.255 15.3634 9C15.3634 8.745 15.3409 8.505 15.3109 8.265L16.8934 7.0275C17.0359 6.915 17.0734 6.7125 16.9834 6.5475L15.4834 3.9525C15.3934 3.7875 15.1909 3.7275 15.0259 3.7875L13.1584 4.5375C12.7684 4.2375 12.3484 3.99 11.8909 3.8025L11.6059 1.815C11.5834 1.635 11.4259 1.5 11.2384 1.5H8.2384C8.0509 1.5 7.89341 1.635 7.87091 1.815L7.5859 3.8025C7.1284 3.99 6.7084 4.245 6.3184 4.5375L4.4509 3.7875C4.2784 3.72 4.0834 3.7875 3.9934 3.9525L2.4934 6.5475C2.3959 6.7125 2.4409 6.915 2.5834 7.0275L4.1659 8.265C4.1359 8.505 4.1134 8.7525 4.1134 9C4.1134 9.2475 4.1359 9.495 4.1659 9.735L2.5834 10.9725C2.4409 11.085 2.4034 11.2875 2.4934 11.4525L3.9934 14.0475C4.0834 14.2125 4.2859 14.2725 4.4509 14.2125L6.3184 13.4625C6.7084 13.7625 7.1284 14.01 7.5859 14.1975L7.87091 16.185C7.89341 16.365 8.0509 16.5 8.2384 16.5H11.2384C11.4259 16.5 11.5834 16.365 11.6059 16.185L11.8909 14.1975C12.3484 14.01 12.7684 13.755 13.1584 13.4625L15.0259 14.2125C15.1984 14.28 15.3934 14.2125 15.4834 14.0475L16.9834 11.4525C17.0734 11.2875 17.0359 11.085 16.8934 10.9725L15.3109 9.735V9.735ZM9.73841 11.625C8.29091 11.625 7.11341 10.4475 7.11341 9C7.11341 7.5525 8.29091 6.375 9.73841 6.375C11.1859 6.375 12.3634 7.5525 12.3634 9C12.3634 10.4475 11.1859 11.625 9.73841 11.625V11.625Z" fill="#969696"/>
</svg>
