<?xml version="1.0" encoding="UTF-8"?><!DOCTYPE svg PUBLIC "-//W3C//DTD SVG 1.1//EN" "http://www.w3.org/Graphics/SVG/1.1/DTD/svg11.dtd"><svg xmlns="http://www.w3.org/2000/svg" xmlns:xlink="http://www.w3.org/1999/xlink"><symbol id="ico-mono-arrow-right" viewBox="0 0 24 24">
    <path fill-rule="evenodd" clip-rule="evenodd" d="M9.776 4L8 5.88 13.769 12 8 18.12 9.776 20l7.557-8-7.557-8z"/>
</symbol><symbol id="ico-mono-basket" viewBox="0 0 18 18">
    <path fill-rule="evenodd" clip-rule="evenodd" d="M6 13.5c-.825 0-1.492.675-1.492 1.5S5.175 16.5 6 16.5s1.5-.675 1.5-1.5-.675-1.5-1.5-1.5zm-4.5-12V3H3l2.7 5.693-1.013 1.837a1.45 1.45 0 00-.187.72c0 .825.675 1.5 1.5 1.5h9v-1.5H6.315a.186.186 0 01-.188-.188l.023-.09.675-1.222h5.587c.563 0 1.058-.307 1.313-.773L16.41 4.11A.752.752 0 0015.75 3H4.657l-.704-1.5H1.5zm12 12c-.825 0-1.492.675-1.492 1.5s.667 1.5 1.492 1.5S15 15.825 15 15s-.675-1.5-1.5-1.5z"/>
</symbol><symbol id="ico-mono-facebook" viewBox="0 0 20 20">
    <path fill-rule="evenodd" clip-rule="evenodd" d="M5.667 1.667a4 4 0 00-4 4v8.666a4 4 0 004 4h4.234v-5.701h-1.97v-2.223H9.9V8.771c0-1.902 1.193-2.938 2.935-2.938.835 0 1.552.061 1.761.088V7.91h-1.208c-.948 0-1.131.44-1.131 1.082v1.42h2.26l-.295 2.221h-1.965v5.701h2.076a4 4 0 004-4V5.667a4 4 0 00-4-4H5.667z"/>
</symbol><symbol id="ico-mono-graph" viewBox="0 0 18 18">
    <path fill-rule="evenodd" clip-rule="evenodd" d="M7.5 2.625v12.75h3V2.625h-3zM3.75 5.663v9.712h3V5.663h-3zM14.25 9h-3v6.375h3V9z"/>
</symbol><symbol id="ico-mono-heart" viewBox="0 0 16 15">
    <path fill-rule="evenodd" clip-rule="evenodd" d="M8 14.012l-1.088-.99C3.05 9.52.5 7.21.5 4.376A4.085 4.085 0 014.625.25C5.93.25 7.183.858 8 1.817A4.491 4.491 0 0111.375.25 4.085 4.085 0 0115.5 4.375c0 2.835-2.55 5.145-6.412 8.655L8 14.012z"/>
</symbol><symbol id="ico-mono-ic-cart" viewBox="0 0 15 16">
    <path fill-rule="evenodd" clip-rule="evenodd" d="M4.5 12.5c-.825 0-1.493.675-1.493 1.5s.668 1.5 1.493 1.5c.825 0 1.5-.675 1.5-1.5s-.675-1.5-1.5-1.5zM0 .5V2h1.5l2.7 5.692L3.187 9.53a1.45 1.45 0 00-.187.72c0 .825.675 1.5 1.5 1.5h9v-1.5H4.815a.186.186 0 01-.188-.188l.023-.09.675-1.222h5.587c.563 0 1.058-.307 1.313-.772L14.91 3.11A.752.752 0 0014.25 2H3.158L2.453.5H0zm12 12c-.825 0-1.492.675-1.492 1.5s.667 1.5 1.492 1.5 1.5-.675 1.5-1.5-.675-1.5-1.5-1.5z"/>
</symbol><symbol id="ico-mono-ic-catalog-2" viewBox="0 0 19 18">
    <path fill-rule="evenodd" clip-rule="evenodd" d="M3.127 10.5h3v-3h-3v3zm0 3.75h3v-3h-3v3zm0-7.5h3v-3h-3v3zm3.75 3.75h9v-3h-9v3zm0 3.75h9v-3h-9v3zm0-10.5v3h9v-3h-9z"/>
</symbol><symbol id="ico-mono-ic-catalog-3" viewBox="0 0 18 18">
    <path fill-rule="evenodd" clip-rule="evenodd" d="M2.625 8.625h3.75v-4.5h-3.75v4.5zm0 5.25h3.75v-4.5h-3.75v4.5zm4.5 0h3.75v-4.5h-3.75v4.5zm4.5 0h3.75v-4.5h-3.75v4.5zm-4.5-5.25h3.75v-4.5h-3.75v4.5zm4.5-4.5v4.5h3.75v-4.5h-3.75z"/>
</symbol><symbol id="ico-mono-ic-catalog" viewBox="0 0 19 18">
    <path fill-rule="evenodd" clip-rule="evenodd" d="M2.628 10.5h12.75v-3H2.628v3zm0 3.75h12.75v-3H2.628v3zm0-10.5v3h12.75v-3H2.628z"/>
</symbol><symbol id="ico-mono-instagram" viewBox="0 0 18 18">
    <path fill-rule="evenodd" clip-rule="evenodd" d="M9 1.5c-2.037 0-2.292.009-3.092.045-2.724.125-4.237 1.636-4.362 4.362C1.509 6.708 1.5 6.963 1.5 9s.009 2.293.045 3.092c.125 2.724 1.636 4.238 4.362 4.363.801.036 1.056.045 3.093.045s2.293-.009 3.092-.045c2.722-.125 4.24-1.636 4.362-4.362.037-.8.046-1.056.046-3.093s-.009-2.292-.045-3.092c-.122-2.721-1.636-4.237-4.362-4.362-.8-.037-1.056-.046-3.093-.046zm0 3.649a3.851 3.851 0 100 7.703 3.851 3.851 0 000-7.703zM9 11.5a2.5 2.5 0 110-5 2.5 2.5 0 010 5zm4.004-7.403a.9.9 0 100 1.8.9.9 0 000-1.8z"/>
</symbol><symbol id="ico-mono-search" viewBox="0 0 19 18">
    <path fill-rule="evenodd" clip-rule="evenodd" d="M12.015 10.5h-.593l-.21-.203a4.853 4.853 0 001.178-3.172A4.875 4.875 0 107.515 12a4.853 4.853 0 003.172-1.178l.203.21v.593l3.75 3.742 1.117-1.117-3.742-3.75zm-4.5 0A3.37 3.37 0 014.14 7.125 3.37 3.37 0 017.515 3.75a3.37 3.37 0 013.375 3.375A3.37 3.37 0 017.515 10.5z"/>
</symbol><symbol id="ico-mono-twitter" viewBox="0 0 20 20">
    <path fill-rule="evenodd" clip-rule="evenodd" d="M18.334 4.937a6.827 6.827 0 01-1.964.538 3.425 3.425 0 001.503-1.892 6.849 6.849 0 01-2.171.83 3.414 3.414 0 00-2.496-1.08c-2.208 0-3.83 2.06-3.331 4.198A9.707 9.707 0 012.827 3.96a3.424 3.424 0 001.058 4.565 3.405 3.405 0 01-1.548-.428C2.3 9.68 3.435 11.162 5.08 11.492a3.428 3.428 0 01-1.544.059 3.422 3.422 0 003.194 2.374 6.875 6.875 0 01-5.062 1.417 9.68 9.68 0 005.242 1.536c6.348 0 9.935-5.362 9.718-10.171a6.962 6.962 0 001.707-1.77z"/>
</symbol><symbol id="ico-mono-user" viewBox="0 0 14 17">
    <path fill-rule="evenodd" clip-rule="evenodd" d="M7 .75a3.37 3.37 0 013.375 3.375A3.37 3.37 0 017 7.5a3.37 3.37 0 01-3.375-3.375A3.37 3.37 0 017 .75zm0 15.975a8.1 8.1 0 01-6.75-3.623C.284 10.864 4.75 9.637 7 9.637c2.239 0 6.716 1.227 6.75 3.465A8.1 8.1 0 017 16.726z"/>
</symbol></svg>