<?xml version="1.0" encoding="UTF-8"?><!DOCTYPE svg PUBLIC "-//W3C//DTD SVG 1.1//EN" "http://www.w3.org/Graphics/SVG/1.1/DTD/svg11.dtd"><svg xmlns="http://www.w3.org/2000/svg" xmlns:xlink="http://www.w3.org/1999/xlink"><symbol id="ico-mono-arrow-right" viewBox="0 0 24 24">
    <path fill-rule="evenodd" clip-rule="evenodd" d="M9.776 4L8 5.88 13.769 12 8 18.12 9.776 20l7.557-8-7.557-8z"/>
</symbol><symbol id="ico-mono-bakin" viewBox="0 0 52 52">
    <path fill-rule="evenodd" clip-rule="evenodd" d="M4.394 20.84c-.575.301-1.185.35-1.837.152-.652-.2-1.137-.582-1.44-1.152-.31-.572-.363-1.19-.161-1.854.245-.803.87-1.401 1.625-1.586l.206.886c-.466.1-.83.453-.984.959-.13.43-.104.818.088 1.167.193.342.5.582.93.712.424.13.813.103 1.164-.074.353-.182.591-.49.723-.92.154-.507.047-1.016-.276-1.343l.666-.62c.524.575.711 1.413.464 2.223-.202.665-.592 1.147-1.168 1.45z"/>
    <path fill-rule="evenodd" clip-rule="evenodd" d="M4.03 11.585l.759.429-.614 1.087 3.27 1.845-.448.795-3.27-1.845-.61 1.082-.76-.428 1.672-2.965z"/>
    <path fill-rule="evenodd" clip-rule="evenodd" d="M6.86 8.055l.6-.687 1.614 3.247c.434.87.354 1.606-.237 2.214l-.643-.56c.361-.344.404-.674.235-1.094l-3.432-.982.6-.688 2.348.706-1.084-2.156z"/>
    <path fill-rule="evenodd" clip-rule="evenodd" d="M12.676 7.936c.327-.236.512-.533.562-.895.044-.366-.056-.72-.307-1.067-.252-.349-.556-.554-.914-.621-.363-.073-.703.01-1.03.246l-.75.543 1.689 2.337.75-.543zm-2.2-3.044c.514-.372 1.075-.5 1.677-.388.608.107 1.101.428 1.485.959.383.53.533 1.099.445 1.71-.084.607-.38 1.099-.895 1.47l-1.49 1.078-2.713-3.752 1.49-1.077z"/>
    <path fill-rule="evenodd" clip-rule="evenodd" d="M18.491 5.797L17.42 3.186l-.763 3.364-.642.264-1.757-4.28.844-.347 1.074 2.617.76-3.37.643-.264 1.756 4.281-.844.346z"/>
    <mask id="a" maskUnits="userSpaceOnUse" x="20" y="0" width="4" height="6">
        <path fill-rule="evenodd" clip-rule="evenodd" d="M20.002 0h3.872v5.14h-3.872V0z"/>
    </mask>
    <g mask="url(#a)">
        <path fill-rule="evenodd" clip-rule="evenodd" d="M22.582 2.34L22.36.99l-.927.152c-.339.057-.57.403-.509.774.062.372.393.633.733.577l.925-.153zM23.121 0l.753 4.566-.9.148-.261-1.585-.517.085-.788 1.759-1.01.167.837-1.868c-.614-.112-1.111-.6-1.21-1.207a1.48 1.48 0 01.267-1.143 1.484 1.484 0 011.003-.62L23.121 0z"/>
    </g>
    <path fill-rule="evenodd" clip-rule="evenodd" d="M29.424 4.01c.36.057.654-.117.712-.483.059-.365-.17-.616-.529-.673l-.848-.134-.184 1.155.849.135zm.317-1.998c.444.07.789.259 1.027.571.24.306.33.668.264 1.086-.069.425-.266.742-.589.964-.322.217-.709.29-1.153.22l-1.75-.278.725-4.571 2.873.455-.137.862-1.972-.312-.137.868.849.135z"/>
    <path fill-rule="evenodd" clip-rule="evenodd" d="M33.437 4.196l1.183.459.093-1.991-1.276 1.532zm1.097 2.234l.043-.877-1.72-.667-.56.676-.917-.356 3.183-3.728 1.054.409-.158 4.902-.925-.36z"/>
    <path fill-rule="evenodd" clip-rule="evenodd" d="M39.275 9.316l-.87-.589-.155-2.722-1.215 1.796-.755-.51 2.592-3.834.756.512-1.145 1.691 2.46-.803.87.59-2.677.902.139 2.967z"/>
    <path fill-rule="evenodd" clip-rule="evenodd" d="M41.828 11.92l2.062-1.926-3.416.478L40 9.965l3.38-3.159.623.667-2.066 1.93 3.42-.482.474.507-3.38 3.159-.623-.666z"/>
    <path fill-rule="evenodd" clip-rule="evenodd" d="M48.577 13.66l.451.786-4.012 2.305-.45-.786 1.662-.954-.856-1.49-1.662.954-.455-.79 4.013-2.305.454.79-1.594.916.856 1.49 1.593-.915z"/>
    <path fill-rule="evenodd" clip-rule="evenodd" d="M47.5 18.616l.364 1.215 1.628-1.15-1.992-.065zm-1.089 2.237l.719-.505-.53-1.766-.877-.027-.283-.943 4.896.223.324 1.083-3.964 2.884-.285-.949z"/>
    <path fill-rule="evenodd" clip-rule="evenodd" d="M47.655 28.619c-.052.4.037.738.266 1.021.237.284.561.454.988.51.426.055.782-.025 1.077-.24.302-.214.475-.518.527-.918l.12-.917-2.858-.374-.12.918zm3.723.486c-.082.63-.373 1.125-.867 1.487-.495.369-1.067.507-1.716.423-.649-.085-1.165-.366-1.548-.85a2.103 2.103 0 01-.457-1.66l.238-1.822 4.589.6-.239 1.822z"/>
    <path fill-rule="evenodd" clip-rule="evenodd" d="M45.313 34.078l2.644.989-1.95-2.847.243-.65 4.336 1.62-.32.856-2.65-.991 1.955 2.848-.243.65-4.335-1.62.32-.855z"/>
    <path fill-rule="evenodd" clip-rule="evenodd" d="M43.925 39.215a1.243 1.243 0 01-.603-.931c-.053-.4.054-.809.317-1.23.456-.728 1.07-1.022 1.84-.883l-.041.902c-.455-.12-.814.029-1.07.438-.267.426-.22.775.088.968.309.193.643.082.898-.327l.306-.487.69.431-.232.37c-.243.387-.207.729.085.911.291.183.59.105.817-.26.211-.336.196-.673-.05-1.015l.791-.417c.39.611.385 1.24-.017 1.885-.243.387-.55.64-.911.756-.362.117-.719.065-1.061-.15a1.138 1.138 0 01-.566-.939c-.431.253-.86.241-1.281-.022z"/>
    <path fill-rule="evenodd" clip-rule="evenodd" d="M42.733 41.203l-.876.918 1.806.847-.93-1.765zm-2.484.16l.795.374 1.274-1.334-.411-.776.68-.713 2.229 4.369-.78.817-4.471-2.02.684-.717z"/>
    <path fill-rule="evenodd" clip-rule="evenodd" d="M36.769 43.994l1.57 2.346.079-3.449.576-.386 2.574 3.846-.759.507-1.573-2.351-.075 3.454-.576.386-2.574-3.846.758-.507z"/>
    <path fill-rule="evenodd" clip-rule="evenodd" d="M34.238 50.271l-.845.326-1.666-4.317.844-.326.69 1.788 1.604-.619-.69-1.788.85-.329 1.667 4.317-.85.33-.662-1.716-1.604.62.662 1.714z"/>
    <path fill-rule="evenodd" clip-rule="evenodd" d="M25.561 47.94c-.402-.003-.728.125-.982.387-.253.269-.382.611-.386 1.04-.005.43.118.775.366 1.042.248.273.572.409.974.413l.926.009.028-2.882-.925-.009zm-.035 3.754c-.636-.006-1.162-.236-1.58-.683-.426-.447-.632-.998-.626-1.652.006-.654.224-1.2.657-1.64a2.107 2.107 0 011.593-.65l1.837.017-.044 4.626-1.837-.018z"/>
    <path fill-rule="evenodd" clip-rule="evenodd" d="M22.865 47.839c-.517-.2-.838-.017-1.034.834l-.615 2.667-3.067-.707 1.04-4.51.882.204-.843 3.659 1.302.3.412-1.791c.18-.78.505-1.274.9-1.455.387-.182.765-.176 1.213-.026l-.19.825z"/>
    <path fill-rule="evenodd" clip-rule="evenodd" d="M14.968 46.906l-.585 1.238.849.401c.31.147.698-.006.86-.347.16-.34.037-.743-.274-.89l-.85-.402zm-1.776 1.619l1.98-4.187.826.39-.687 1.454.472.224 1.65-.998.927.439-1.752 1.059c.441.443.572 1.126.308 1.683a1.484 1.484 0 01-.87.788c-.396.142-.79.124-1.18-.06l-1.674-.792z"/>
    <path fill-rule="evenodd" clip-rule="evenodd" d="M9.688 41.06c-.277-.293-.595-.438-.96-.44-.37.005-.706.15-1.019.445-.312.295-.476.622-.496.986-.024.37.102.696.379.989l.636.673 2.096-1.98-.636-.673zm-2.73 2.58c-.436-.462-.636-1.001-.605-1.613.027-.617.281-1.147.757-1.597.476-.45 1.02-.673 1.637-.664.613.003 1.14.233 1.576.695l1.262 1.336-3.365 3.179-1.263-1.337z"/>
    <path fill-rule="evenodd" clip-rule="evenodd" d="M7.082 37.742l-1.023-1.661.744-.458 1.5 2.44-3.943 2.424-1.482-2.41.743-.457 1.005 1.633.839-.517-.918-1.492.732-.45.918 1.492.885-.544z"/>
    <path fill-rule="evenodd" clip-rule="evenodd" d="M5.71 35.44c-.113-.543-.442-.712-1.262-.413l-2.573.936L.8 33.005l4.35-1.584.31.852-3.53 1.284.457 1.256 1.727-.629c.753-.274 1.345-.271 1.711-.038.364.226.565.547.682 1.004l-.796.29z"/>
    <mask id="b" maskUnits="userSpaceOnUse" x="0" y="26" width="5" height="5">
        <path fill-rule="evenodd" clip-rule="evenodd" d="M0 26.414h4.94v4.338H0v-4.338z"/>
    </mask>
    <g mask="url(#b)">
        <path fill-rule="evenodd" clip-rule="evenodd" d="M3.07 29.429l-.163-1.259-1.792.873 1.955.386zm1.436-2.032l-.79.382.237 1.828.861.169.127.976-4.796-1.01L0 28.62l4.378-2.207.128.983z"/>
    </g>
    <path fill-rule="evenodd" clip-rule="evenodd" d="M2.742 24.1a.867.867 0 11-1.733 0 .867.867 0 011.733 0z"/>
    <path fill-rule="evenodd" clip-rule="evenodd" d="M50.194 24.115a.866.866 0 11-1.732.001.866.866 0 011.732 0z"/>
    <path fill-rule="evenodd" clip-rule="evenodd" d="M38.888 31.757c-.865.863-2.059 1.355-3.363 1.36l-.004-.001H23.664l-1.028.001H18.85c-2.71 0-7.753-2.137-7.753-7.727 0-5.284 4.437-7.775 7.605-7.775h3.097c1.09 0 1.82.802 1.82 1.788 0 .994-.822 1.703-1.82 1.703-.998 0-1.823-.003-2.952-.003-1.128 0-3.986 1.029-3.986 4.287s2.84 4.22 3.99 4.22l3.783-.004 1.035.003 11.697-.003c.838 0 1.366-.671 1.366-1.38 0-.651-.472-1.422-1.37-1.422h-3.23l-4.616-.002c-.891.005-1.787-.892-1.79-1.79l-.002-5.602c-.002-.898.892-1.795 1.787-1.795h6.328c.993-.004 1.791.713 1.79 1.7a1.795 1.795 0 01-1.788 1.799l-4.407-.005v2.511l2.697.002 3.389-.002h.002c1.307 0 2.503.54 3.37 1.412.862.866 1.399 2.032 1.399 3.342a4.776 4.776 0 01-1.402 3.383z"/>
</symbol><symbol id="ico-mono-basket" viewBox="0 0 18 18">
    <path fill-rule="evenodd" clip-rule="evenodd" d="M6 13.5c-.825 0-1.492.675-1.492 1.5S5.175 16.5 6 16.5s1.5-.675 1.5-1.5-.675-1.5-1.5-1.5zm-4.5-12V3H3l2.7 5.693-1.013 1.837a1.45 1.45 0 00-.187.72c0 .825.675 1.5 1.5 1.5h9v-1.5H6.315a.186.186 0 01-.188-.188l.023-.09.675-1.222h5.587c.563 0 1.058-.307 1.313-.773L16.41 4.11A.752.752 0 0015.75 3H4.657l-.704-1.5H1.5zm12 12c-.825 0-1.492.675-1.492 1.5s.667 1.5 1.492 1.5S15 15.825 15 15s-.675-1.5-1.5-1.5z"/>
</symbol><symbol id="ico-mono-facebook" viewBox="0 0 20 20">
    <path fill-rule="evenodd" clip-rule="evenodd" d="M5.667 1.667a4 4 0 00-4 4v8.666a4 4 0 004 4h4.234v-5.701h-1.97v-2.223H9.9V8.771c0-1.902 1.193-2.938 2.935-2.938.835 0 1.552.061 1.761.088V7.91h-1.208c-.948 0-1.131.44-1.131 1.082v1.42h2.26l-.295 2.221h-1.965v5.701h2.076a4 4 0 004-4V5.667a4 4 0 00-4-4H5.667z"/>
</symbol><symbol id="ico-mono-graph" viewBox="0 0 18 18">
    <path fill-rule="evenodd" clip-rule="evenodd" d="M7.5 2.625v12.75h3V2.625h-3zM3.75 5.663v9.712h3V5.663h-3zM14.25 9h-3v6.375h3V9z"/>
</symbol><symbol id="ico-mono-heart" viewBox="0 0 16 15">
    <path fill-rule="evenodd" clip-rule="evenodd" d="M8 14.012l-1.088-.99C3.05 9.52.5 7.21.5 4.376A4.085 4.085 0 014.625.25C5.93.25 7.183.858 8 1.817A4.491 4.491 0 0111.375.25 4.085 4.085 0 0115.5 4.375c0 2.835-2.55 5.145-6.412 8.655L8 14.012z"/>
</symbol><symbol id="ico-mono-ic-cart" viewBox="0 0 15 16">
    <path fill-rule="evenodd" clip-rule="evenodd" d="M4.5 12.5c-.825 0-1.493.675-1.493 1.5s.668 1.5 1.493 1.5c.825 0 1.5-.675 1.5-1.5s-.675-1.5-1.5-1.5zM0 .5V2h1.5l2.7 5.692L3.187 9.53a1.45 1.45 0 00-.187.72c0 .825.675 1.5 1.5 1.5h9v-1.5H4.815a.186.186 0 01-.188-.188l.023-.09.675-1.222h5.587c.563 0 1.058-.307 1.313-.772L14.91 3.11A.752.752 0 0014.25 2H3.158L2.453.5H0zm12 12c-.825 0-1.492.675-1.492 1.5s.667 1.5 1.492 1.5 1.5-.675 1.5-1.5-.675-1.5-1.5-1.5z"/>
</symbol><symbol id="ico-mono-ic-catalog-2" viewBox="0 0 19 18">
    <path fill-rule="evenodd" clip-rule="evenodd" d="M3.127 10.5h3v-3h-3v3zm0 3.75h3v-3h-3v3zm0-7.5h3v-3h-3v3zm3.75 3.75h9v-3h-9v3zm0 3.75h9v-3h-9v3zm0-10.5v3h9v-3h-9z"/>
</symbol><symbol id="ico-mono-ic-catalog-3" viewBox="0 0 18 18">
    <path fill-rule="evenodd" clip-rule="evenodd" d="M2.625 8.625h3.75v-4.5h-3.75v4.5zm0 5.25h3.75v-4.5h-3.75v4.5zm4.5 0h3.75v-4.5h-3.75v4.5zm4.5 0h3.75v-4.5h-3.75v4.5zm-4.5-5.25h3.75v-4.5h-3.75v4.5zm4.5-4.5v4.5h3.75v-4.5h-3.75z"/>
</symbol><symbol id="ico-mono-ic-catalog" viewBox="0 0 19 18">
    <path fill-rule="evenodd" clip-rule="evenodd" d="M2.628 10.5h12.75v-3H2.628v3zm0 3.75h12.75v-3H2.628v3zm0-10.5v3h12.75v-3H2.628z"/>
</symbol><symbol id="ico-mono-instagram" viewBox="0 0 18 18">
    <path fill-rule="evenodd" clip-rule="evenodd" d="M9 1.5c-2.037 0-2.292.009-3.092.045-2.724.125-4.237 1.636-4.362 4.362C1.509 6.708 1.5 6.963 1.5 9s.009 2.293.045 3.092c.125 2.724 1.636 4.238 4.362 4.363.801.036 1.056.045 3.093.045s2.293-.009 3.092-.045c2.722-.125 4.24-1.636 4.362-4.362.037-.8.046-1.056.046-3.093s-.009-2.292-.045-3.092c-.122-2.721-1.636-4.237-4.362-4.362-.8-.037-1.056-.046-3.093-.046zm0 3.649a3.851 3.851 0 100 7.703 3.851 3.851 0 000-7.703zM9 11.5a2.5 2.5 0 110-5 2.5 2.5 0 010 5zm4.004-7.403a.9.9 0 100 1.8.9.9 0 000-1.8z"/>
</symbol><symbol id="ico-mono-search" viewBox="0 0 19 18">
    <path fill-rule="evenodd" clip-rule="evenodd" d="M12.015 10.5h-.593l-.21-.203a4.853 4.853 0 001.178-3.172A4.875 4.875 0 107.515 12a4.853 4.853 0 003.172-1.178l.203.21v.593l3.75 3.742 1.117-1.117-3.742-3.75zm-4.5 0A3.37 3.37 0 014.14 7.125 3.37 3.37 0 017.515 3.75a3.37 3.37 0 013.375 3.375A3.37 3.37 0 017.515 10.5z"/>
</symbol><symbol id="ico-mono-twitter" viewBox="0 0 20 20">
    <path fill-rule="evenodd" clip-rule="evenodd" d="M18.334 4.937a6.827 6.827 0 01-1.964.538 3.425 3.425 0 001.503-1.892 6.849 6.849 0 01-2.171.83 3.414 3.414 0 00-2.496-1.08c-2.208 0-3.83 2.06-3.331 4.198A9.707 9.707 0 012.827 3.96a3.424 3.424 0 001.058 4.565 3.405 3.405 0 01-1.548-.428C2.3 9.68 3.435 11.162 5.08 11.492a3.428 3.428 0 01-1.544.059 3.422 3.422 0 003.194 2.374 6.875 6.875 0 01-5.062 1.417 9.68 9.68 0 005.242 1.536c6.348 0 9.935-5.362 9.718-10.171a6.962 6.962 0 001.707-1.77z"/>
</symbol><symbol id="ico-mono-user" viewBox="0 0 14 17">
    <path fill-rule="evenodd" clip-rule="evenodd" d="M7 .75a3.37 3.37 0 013.375 3.375A3.37 3.37 0 017 7.5a3.37 3.37 0 01-3.375-3.375A3.37 3.37 0 017 .75zm0 15.975a8.1 8.1 0 01-6.75-3.623C.284 10.864 4.75 9.637 7 9.637c2.239 0 6.716 1.227 6.75 3.465A8.1 8.1 0 017 16.726z"/>
</symbol></svg>